<?xml version="1.0" encoding="utf-8"?>
<!-- Generator: Adobe Illustrator 27.4.0, SVG Export Plug-In . SVG Version: 6.00 Build 0)  -->
<svg version="1.1" id="Layer_1" xmlns="http://www.w3.org/2000/svg" xmlns:xlink="http://www.w3.org/1999/xlink" x="0px" y="0px"
	 viewBox="0 0 201.9 77" style="enable-background:new 0 0 201.9 77;" xml:space="preserve">
<style type="text/css">
	.st0{clip-path:url(#SVGID_00000044859212703861020380000011783232432025410741_);}
	.st1{fill:#171C28;}
	.st2{fill:#0296A6;}
	.st3{fill:#FFFFFF;}
</style>
<g>
	<defs>
		<rect id="SVGID_1_" width="201.9" height="77"/>
	</defs>
	<clipPath id="SVGID_00000080909509003588050890000003679680150040902846_">
		<use xlink:href="#SVGID_1_"  style="overflow:visible;"/>
	</clipPath>
	<g id="SecurFinancial_Logo_Main" style="clip-path:url(#SVGID_00000080909509003588050890000003679680150040902846_);">
		<g id="SecurFinancial_Logo">
			<g id="SecurFinancial_Logo-2" transform="translate(0 2.026)">
				<g>
					<path class="st1" d="M118.6,25.3c0-0.3,0.1-0.4,0.3-0.4c0.8,0,3.8-0.1,8.1-0.1c8.1,0,9.6,3.7,9.6,6.3c0,2.4-1.2,3.9-2.2,4.6
						c1,0.5,3.2,2.1,3.2,5.4c0,4.6-4,7.3-10.7,7.3c-2.7,0-6.9-0.1-8.1-0.1c-0.2,0-0.3-0.1-0.3-0.4V25.3z M124.8,33.6h2.7
						c1,0,2,0.1,2.4,0.1c0.4-0.5,0.6-1.1,0.6-1.8c0-0.9-0.3-2.3-3.2-2.3c-0.9,0-1.9,0-2.5,0.1V33.6z M124.8,43.2
						c0.6,0,1.7,0.1,2.7,0.1c2.4,0,3.7-0.8,3.7-2.3c0-1.5-1.1-2.3-3.8-2.3h-2.6V43.2z"/>
					<path class="st1" d="M156.2,43.5c0,1.1,0,2,0.1,3c0,0,0,0.1-0.1,0.1c-2.8,1.2-5.8,1.9-8.7,1.9c-4.2,0-7.7-1.7-7.7-6.1
						c0-3.8,3.3-5.9,8.4-5.9c0.8,0,1.6,0,2,0v-0.2c0-0.5-0.5-1.7-3.2-1.7c-1.7,0-3.5,0.5-5,1.1c-0.2,0.1-0.4,0-0.4-0.2v-4.1
						c0-0.2,0-0.4,0.3-0.5c1.8-0.8,4.3-1.2,6.3-1.2c5.4,0,7.9,3.1,7.9,7.4V43.5z M150.1,40.6c-0.3,0-0.6-0.1-1.6-0.1
						c-1.7,0-2.7,0.7-2.7,1.8c0,1.2,0.9,1.9,2.6,1.9c0.6,0,1.3-0.1,1.7-0.3V40.6z"/>
					<path class="st1" d="M159.8,34.4c0-1.2-0.1-3-0.1-3.9c0-0.2,0-0.4,0.3-0.4h4.8c0.4,0,0.5,0.1,0.6,0.3c0.1,0.3,0.2,0.6,0.3,1
						c1.5-1.1,3.2-1.6,5-1.6c2.9,0,6.3,1.7,6.3,7.4v10.6c0,0.3-0.1,0.4-0.4,0.4h-5.5c-0.3,0-0.4-0.1-0.4-0.4V37.3
						c0-1.6-0.8-2.5-2.2-2.5c-0.8,0-1.5,0.3-2.2,0.8v12.2c0,0.3-0.1,0.4-0.4,0.4h-5.5c-0.3,0-0.4-0.1-0.4-0.4V34.4z"/>
					<path class="st1" d="M198.1,30.1c0.3,0,0.4,0.2,0.2,0.5c-1.1,1.6-5,6-6.2,7.6c-0.1,0.1-0.1,0.2,0,0.3c1.9,2.5,4.9,6.6,6.9,9.3
						c0.1,0.2,0,0.4-0.3,0.4h-7c-0.3,0-0.4-0.1-0.5-0.3l-4.5-6.9v6.8c0,0.3-0.1,0.4-0.4,0.4h-5.5c-0.3,0-0.4-0.1-0.4-0.4V23.3
						c0-0.2,0-0.3,0.3-0.3h5.6c0.3,0,0.4,0.1,0.4,0.3v14.4l5.2-7.2c0.1-0.3,0.2-0.3,0.5-0.3H198.1z"/>
				</g>
				<g id="Secur">
					<path id="Background" class="st2" d="M10.2,0h87.7c5.6,0,10.2,4.5,10.2,10.1c0,0,0,0,0,0v52.7c0,5.6-4.6,10.1-10.2,10.1H10.2
						C4.6,73,0,68.4,0,62.8V10.1C0,4.5,4.6,0,10.2,0C10.2,0,10.2,0,10.2,0z"/>
					<path id="Secur-2" class="st3" d="M17.8,49c5.8,0,10.1-2.5,10.1-7.4c0-3.1-1.1-5.4-6.3-7.3L20,33.8c-2.8-1-3.1-1.6-3.1-2.3
						c0-0.8,0.7-1.6,3-1.6c2.1-0.1,4.2,0.4,6.1,1.3c0.3,0.1,0.4-0.1,0.4-0.2v-5c0-0.3-0.1-0.4-0.3-0.5c-1.9-0.7-3.9-1-5.9-0.9
						c-6.7,0-9.5,3.7-9.5,7.4c0,3.3,1.8,5.5,5.9,7.1l1.7,0.7c2.5,1,3.1,1.4,3.1,2.3c0,0.9-0.8,1.5-3.1,1.5c-2.5,0-5-0.7-7.2-1.9
						c-0.2-0.1-0.4,0-0.4,0.2v5.2c0,0.3,0.1,0.5,0.3,0.7C13.2,48.7,15.5,49.1,17.8,49z M43.3,41.2c1.3,0,2.5,0,3.8-0.1
						c0.2,0,0.3-0.1,0.3-0.3c0.1-0.8,0.2-1.7,0.2-2.5c0-3.9-2.3-8.2-8.3-8.2c-6.2,0-9.2,4.7-9.2,9.7c0,4.5,2.6,9.2,9.8,9.2
						c2,0.1,4.1-0.3,5.9-1c0.2-0.1,0.3-0.2,0.3-0.5v-4c0-0.3-0.1-0.3-0.2-0.2c-1.5,0.5-3,0.8-4.6,0.8c-3.2,0-4.5-1.3-4.7-2.7H43.3z
						 M36.6,37.1c0-1.4,1.1-2.6,2.5-2.6c0,0,0.1,0,0.1,0c1.3,0,2.4,1,2.4,2.2c0,0.1,0,0.2,0,0.3c-0.5,0.1-1,0.1-1.5,0.1L36.6,37.1z
						 M64.1,43.7c0-0.1-0.1-0.3-0.3-0.2c-0.8,0.2-1.6,0.3-2.5,0.3c-2.6,0-4.9-1.3-4.9-4.4c0-2.7,1.7-4.4,4.7-4.4
						c0.9,0,1.8,0.1,2.6,0.3c0.2,0.1,0.3,0,0.3-0.3l0.1-4.3c0-0.3,0-0.3-0.2-0.4c-1.1-0.3-2.2-0.4-3.3-0.4c-6.5,0-10.8,4-10.8,9.6
						c0,5.5,3.9,9.4,10,9.4c1.4,0.1,2.7-0.1,4-0.5c0.2-0.1,0.2-0.2,0.2-0.4L64.1,43.7z M84.2,30.7c0-0.3-0.1-0.3-0.3-0.3h-5.7
						c-0.3,0-0.4,0.1-0.4,0.3V43c-0.6,0.5-1.3,0.8-2.1,0.8c-1.7,0-2.2-1.1-2.2-2.8V30.7c0-0.3-0.1-0.3-0.3-0.3h-5.7
						c-0.3,0-0.4,0.1-0.4,0.3v11.2c0,5.3,2.9,7.1,6.5,7.1c1.7,0.1,3.4-0.4,4.8-1.5c0.1,0.3,0.1,0.6,0.3,0.8c0.1,0.2,0.2,0.3,0.5,0.3
						H84c0.3,0,0.4-0.1,0.4-0.3c-0.1-1.3-0.2-2.6-0.2-3.8L84.2,30.7z M88.3,30.3c-0.2,0-0.3,0.1-0.3,0.3c0.1,1.5,0.2,3.6,0.2,5.2
						v12.4c0,0.3,0.1,0.4,0.4,0.4h5.6c0.3,0,0.4-0.1,0.4-0.4V38.1c1.1-1.2,3.5-1.8,5.6-1.7c0.3,0,0.4-0.1,0.4-0.4v-5.7
						c0-0.3-0.1-0.3-0.3-0.3c-2.3,0.1-4.5,1.2-5.9,3.1c-0.1-0.8-0.2-1.6-0.5-2.3c-0.1-0.3-0.2-0.4-0.5-0.4L88.3,30.3z"/>
				</g>
			</g>
		</g>
	</g>
</g>
</svg>
